# xmcd CD database file
#
# Track frame offsets:
#	150
#	16376
#	30315
#	46752
#	60695
#	77464
#	93787
#	111885
#	129181
#	144068
#	162639
#	180913
#	196773
#	216574
#	237240
#	253461
#	282700
#	305967
#
# Disc length: 4273 seconds
#
# Revision: 1
# Processed by: cddbd v1.5.2PL0 Copyright (c) Steve Scherf et al.
# Submitted via: CDex 1.70beta3
#
DISCID=f610af12
DTITLE=オムニバス - デカまにあ
DYEAR=2004
DGENRE=J-POP
TTITLE0=七人の刑事のテーマ_七人の刑事
TTITLE1=谷沢裕之/ブン屋小唄_事件記者
TTITLE2=クラウン・スリー・ヴォイス/流れる_特捜シリーズ
TTITLE3=天知茂/一匹狼_ローンウルフ_
TTITLE4=石橋正次/夜明けの街_夜明けの刑事
TTITLE5=西郷輝彦/ジグザグ・ブルース_ジグザグ・ブルース
TTITLE6=高倉健/約束_刑事_
TTITLE7=堀内孝雄/恋人綴り_はくれ刑事　純情派
TTITLE8=黒沢年男/アスファルトジャングル_爆走!ドーベルマン刑事
TTITLE9=松崎しげる/ワンダフル・モーメント_噂の刑事トミーとマツ
TTITLE10=水谷豊/カリフォルニア・コネｋション_熱中時代　刑事編
TTITLE11=木ノ内みどり/走れ風のように_刑事犬カール
TTITLE12=堀内孝雄/愛さずにはいられない_さすらい刑事　旅情編
TTITLE13=舘ひろし/冷たい太陽_あぶない刑事
TTITLE14=トランザム/ああ青春_俺たちの勲章
TTITLE15=THE 虎舞竜/祈り_法医学教室の事件ファイル
TTITLE16=岡本真夜/宝物_ママチャリ刑事
TTITLE17=ザ・ホーネッツ/西部警察メインテーマ_西部警察
EXTD=YEAR: 2004
EXTT0=
EXTT1=
EXTT2=
EXTT3=
EXTT4=
EXTT5=
EXTT6=
EXTT7=
EXTT8=
EXTT9=
EXTT10=
EXTT11=
EXTT12=
EXTT13=
EXTT14=
EXTT15=
EXTT16=
EXTT17=
PLAYORDER=
